<?xml version="1.0" standalone="no"?><!DOCTYPE svg PUBLIC "-//W3C//DTD SVG 1.1//EN" "http://www.w3.org/Graphics/SVG/1.1/DTD/svg11.dtd"><svg t="1487733963339" class="icon" style="" viewBox="0 0 1024 1024" version="1.1" xmlns="http://www.w3.org/2000/svg" p-id="3264" xmlns:xlink="http://www.w3.org/1999/xlink" width="22" height="22"><defs><style type="text/css"></style></defs><path d="M803.821 694.371c0 27.293-22.017 49.388-49.192 49.388h-491.895c-27.17 0-49.187-22.094-49.187-49.388v-246.895c0-18.926 10.966-34.868 26.555-43.158 14.701-38.168 34.958-73.585 60.063-104.982h-37.43c-81.502 0-147.581 66.326-147.581 148.14v246.9c0 81.837 66.082 148.144 147.581 148.144h491.895c81.523 0 147.559-66.302 147.559-148.144v-197.542l-98.365 74.044v123.493zM607.063 447.475v49.383c0 18.713 10.523 35.78 27.184 44.175 6.968 3.473 14.509 5.21 21.989 5.21 10.437 0 20.849-3.372 29.511-9.888l196.763-148.14c12.393-9.307 19.676-23.941 19.676-39.489s-7.282-30.188-19.676-39.489l-196.763-148.149c-8.657-6.534-19.074-9.883-29.511-9.883-7.478 0-15.021 1.712-21.989 5.213-16.662 8.361-27.184 25.462-27.184 44.175v49.378c-162.983 0-295.145 132.661-295.145 296.28 0 34.673 6.244 67.852 17.157 98.756 40.558-115.023 149.528-197.528 277.986-197.528z" p-id="3265" ></path></svg>