<?xml version="1.0" standalone="no"?><!DOCTYPE svg PUBLIC "-//W3C//DTD SVG 1.1//EN" "http://www.w3.org/Graphics/SVG/1.1/DTD/svg11.dtd"><svg t="1487733459466" class="icon" style="" viewBox="0 0 1024 1024" version="1.1" xmlns="http://www.w3.org/2000/svg" p-id="4667" xmlns:xlink="http://www.w3.org/1999/xlink" width="20" height="20"><defs><style type="text/css"></style></defs><path d="M512 0C229.25312 0 0 229.21216 0 512s229.25312 512 512 512c282.76736 0 512-229.21216 512-512S794.76736 0 512 0z m302.08 663.04c0 34.14016-20.43904 55.45984-51.712 55.45984H503.45984l-139.93984 149.4016v-149.4016h-101.84704c-31.25248 0-61.99296-21.2992-61.99296-55.45984V315.51488c0-34.11968 30.74048-68.05504 61.99296-68.05504h500.67456c31.27296 0 51.712 33.93536 51.712 68.05504v347.52512z" fill="#000000" p-id="4668"></path><path d="M711.68 424.73472c0 15.19616-12.32896 27.52512-27.52512 27.52512H329.60512a27.52512 27.52512 0 0 1-27.52512-27.52512v-6.41024c0-15.19616 12.32896-27.52512 27.52512-27.52512h354.57024c15.19616 0 27.52512 12.32896 27.52512 27.52512v6.41024zM711.68 568.09472c0 15.19616-12.32896 27.52512-27.52512 27.52512H329.60512a27.52512 27.52512 0 0 1-27.52512-27.52512v-6.41024c0-15.19616 12.32896-27.52512 27.52512-27.52512h354.57024c15.19616 0 27.52512 12.32896 27.52512 27.52512v6.41024z" fill="#000000" p-id="4669"></path></svg>