<?xml version="1.0" standalone="no"?><!DOCTYPE svg PUBLIC "-//W3C//DTD SVG 1.1//EN" "http://www.w3.org/Graphics/SVG/1.1/DTD/svg11.dtd"><svg t="1487733593418" class="icon" style="" viewBox="0 0 1127 1024" version="1.1" xmlns="http://www.w3.org/2000/svg" p-id="7586" xmlns:xlink="http://www.w3.org/1999/xlink" width="22.01171875" height="20"><defs><style type="text/css"></style></defs><path d="M70.190957 937.271144 70.190957 41.83579C70.190957 23.249598 54.393236 8.045714 35.094622 8.045714 15.790866 8.045714 0 23.249598 0 41.83579L0 1004.852945 1087.931562 1004.852945C1107.23703 1004.852945 1123.026184 989.649062 1123.026184 971.06287 1123.026184 952.475027 1107.23703 937.271144 1087.931562 937.271144L70.190957 937.271144Z" p-id="7587"></path><path d="M128.731136 426.422272l197.12 0 0 194.783232-197.12 0 0-194.783232Z" p-id="7588"></path><path d="M482.742272 522.971136l197.12 0 0 194.783232-197.12 0 0-194.783232Z" p-id="7589"></path><path d="M836.753408 329.873408l197.12 0 0 194.783232-197.12 0 0-194.783232Z" p-id="7590"></path><path d="M266.14762 519.256062l307.918478 112.073161-21.013718 57.734715-307.918478-112.073161 21.013718-57.734715Z" p-id="7591"></path><path d="M604.805039 606.264587l271.659032-183.236331 34.356812 50.936068-271.659032 183.236331-34.356812-50.936068Z" p-id="7592"></path></svg>