<?xml version="1.0" standalone="no"?><!DOCTYPE svg PUBLIC "-//W3C//DTD SVG 1.1//EN" "http://www.w3.org/Graphics/SVG/1.1/DTD/svg11.dtd"><svg t="1487732977493" class="icon" style="" viewBox="0 0 1024 1024" version="1.1" xmlns="http://www.w3.org/2000/svg" p-id="2727" xmlns:xlink="http://www.w3.org/1999/xlink" width="20" height="20"><defs><style type="text/css"></style></defs><path d="M459.709053 384.476605c0 46.204321-37.462217 83.665515-83.665515 83.665515L150.146649 468.14212c-46.203298 0-83.665515-37.461193-83.665515-83.665515L66.481134 158.580738c0-46.203298 37.462217-83.665515 83.665515-83.665515l225.89689 0c46.203298 0 83.665515 37.462217 83.665515 83.665515L459.709053 384.476605z" p-id="2728" fill="#000000"></path><path d="M957.517843 384.476605c0 46.204321-37.462217 83.665515-83.665515 83.665515L647.956462 468.14212c-46.203298 0-83.665515-37.461193-83.665515-83.665515L564.290947 158.580738c0-46.203298 37.462217-83.665515 83.665515-83.665515l225.89689 0c46.203298 0 83.665515 37.462217 83.665515 83.665515L957.518866 384.476605z" p-id="2729" fill="#000000"></path><path d="M459.709053 865.553315c0 46.203298-37.462217 83.665515-83.665515 83.665515L150.146649 949.21883c-46.203298 0-83.665515-37.461193-83.665515-83.665515L66.481134 639.656425c0-46.203298 37.462217-83.665515 83.665515-83.665515l225.89689 0c46.203298 0 83.665515 37.462217 83.665515 83.665515L459.709053 865.553315z" p-id="2730" fill="#000000"></path><path d="M957.517843 865.553315c0 46.203298-37.462217 83.665515-83.665515 83.665515L647.956462 949.21883c-46.203298 0-83.665515-37.461193-83.665515-83.665515L564.290947 639.656425c0-46.203298 37.462217-83.665515 83.665515-83.665515l225.89689 0c46.203298 0 83.665515 37.462217 83.665515 83.665515L957.518866 865.553315z" p-id="2731" fill="#000000"></path></svg>